<svg width="16" height="25" viewBox="0 0 16 25" fill="none" xmlns="http://www.w3.org/2000/svg">
<path d="M15.3676 14.2502C15.248 13.7881 15.0255 13.3579 14.7161 12.9909C14.4087 12.6347 14.033 12.3417 13.6104 12.1286C13.3826 12.0122 13.1457 11.9141 12.902 11.8352C13.0104 11.802 13.1183 11.7645 13.2258 11.7226C13.6774 11.5531 14.0828 11.2824 14.4097 10.9319C14.7395 10.5628 14.9612 10.1124 15.0512 9.62895C15.1084 9.38322 15.124 9.12989 15.0975 8.87915C15.0695 8.60859 14.9853 8.34659 14.8499 8.10949C14.7156 7.87889 14.5394 7.67446 14.3302 7.50632C14.1372 7.35134 13.9263 7.21945 13.7018 7.11341C13.2857 6.91989 12.8467 6.77836 12.395 6.69211C11.5781 6.53858 10.7481 6.46279 9.91651 6.4658C9.8143 6.13292 9.71608 5.80037 9.62668 5.46805C9.43247 4.82095 9.30867 4.15538 9.25735 3.48253C9.24152 3.18493 9.27262 2.88671 9.34955 2.59849C9.42413 2.34062 9.55531 2.102 9.73384 1.8995C9.82954 1.79008 9.93833 1.69244 10.0578 1.60871C9.92055 1.85596 9.84879 2.13328 9.84916 2.41506C9.84916 3.34534 10.6929 4.37259 11.9362 4.09952C14.619 3.51033 13.2798 -0.128042 10.5864 0.00347834C10.2983 0.0106027 10.0141 0.0717467 9.74925 0.183624C9.51777 0.291851 9.30581 0.436595 9.12177 0.61213C8.63035 1.07844 8.2987 1.68386 8.17294 2.34424C8.10544 2.75273 8.1024 3.16904 8.16392 3.57845C8.28412 4.31596 8.48109 5.03933 8.75175 5.73714C8.84441 5.98675 8.93902 6.23329 9.03352 6.48003C8.44121 6.50072 7.8522 6.54122 7.26575 6.59664C6.4215 6.67626 4.765 7.02251 4.765 7.02251C4.65297 6.91805 3.36568 5.82204 2.65535 5.4237C2.58841 5.38587 2.51383 5.36301 2.4369 5.35676C2.35997 5.35052 2.28257 5.36105 2.21024 5.38757C2.1379 5.41409 2.07239 5.45596 2.01836 5.51022C1.96433 5.56448 1.92312 5.62982 1.89763 5.70154C1.85248 5.82883 1.85975 5.96846 1.91784 6.09056C1.97593 6.21266 2.08023 6.30752 2.20847 6.35489C2.47956 6.45495 2.78251 6.57125 2.88558 6.61899C3.27033 6.80293 3.6393 7.01728 3.98886 7.25992C4.33656 7.49975 4.6644 7.76632 4.9693 8.05713L4.98836 8.15374C5.01045 8.14989 5.03277 8.14634 5.05486 8.14253C5.3323 8.41888 5.58801 8.71557 5.8198 9.03004C6.07162 9.37469 6.29102 9.7412 6.47528 10.125C6.66232 10.508 7.2131 13.0707 7.16738 13.8563C7.1351 14.7039 6.95842 15.5402 6.64472 16.3302C6.33652 17.0982 5.81052 17.7705 5.13893 18.1071C4.82259 18.2712 4.46973 18.3551 4.1122 18.3514C3.75467 18.3478 3.40371 18.2566 3.09092 18.0861C2.90661 17.9936 2.74601 17.8611 2.62122 17.6987C2.49643 17.5362 2.41067 17.348 2.37043 17.1483C2.32461 16.9147 2.18959 16.7073 1.99313 16.5687C1.79666 16.4301 1.55368 16.3708 1.31421 16.4032L1.30098 16.405C1.16505 16.4239 1.03504 16.4721 0.92026 16.5462C0.805482 16.6204 0.708766 16.7186 0.637067 16.8338C0.565368 16.9491 0.520446 17.0785 0.505519 17.2128C0.490591 17.3471 0.506041 17.483 0.550736 17.6108C0.667583 17.9295 0.844464 18.2236 1.0721 18.4777C1.47726 18.9106 1.9956 19.2255 2.5704 19.388C3.09541 19.5442 3.6499 19.5792 4.1909 19.4905C4.71445 19.4096 5.21147 19.2092 5.64207 18.9051C5.97971 18.6642 6.27574 18.3714 6.51881 18.0379C6.85972 18.1709 7.19062 18.2852 7.53372 18.3953C7.96407 18.5321 8.40001 18.6526 8.84153 18.7567C9.69925 18.9674 10.5794 19.0769 11.4634 19.0827C11.4033 19.3916 11.3348 19.6981 11.2541 19.9997C11.0868 20.6544 10.8485 21.2896 10.5435 21.8942C10.2428 22.4737 9.84793 23.0023 9.39377 23.2843C9.18977 23.417 8.95391 23.4945 8.70987 23.5091C8.46582 23.5238 8.22217 23.475 8.00331 23.3678C7.81123 23.2889 7.64699 23.1561 7.53107 22.986C7.42007 22.8061 7.35479 22.6025 7.34077 22.3925C7.33291 22.3107 7.33091 22.2243 7.33149 22.1361C7.69325 22.041 8.00752 21.8198 8.21574 21.5135C8.42395 21.2071 8.51189 20.8368 8.46311 20.4714C8.41433 20.1059 8.23219 19.7705 7.95065 19.5275C7.66911 19.2846 7.30739 19.1507 6.93297 19.1509C6.42373 19.1509 5.03463 19.7696 5.02755 21.5657C5.01753 24.1121 7.11226 24.7726 7.4908 24.8771C7.71895 24.9389 7.95282 24.978 8.18889 24.994C8.43221 25.0093 8.67652 24.9953 8.91636 24.9521C9.38931 24.8635 9.83198 24.6591 10.2036 24.3578C10.5362 24.0858 10.8212 23.7618 11.0469 23.3988C11.2563 23.0645 11.4328 22.7113 11.5739 22.3439C11.8384 21.6432 12.0255 20.9165 12.1317 20.1763C12.1906 19.7946 12.2314 19.4126 12.2593 19.031C12.5065 19.0001 12.751 18.9514 12.9909 18.8853C13.4752 18.7548 13.9258 18.5243 14.3128 18.2093C14.6976 17.8864 14.9961 17.4757 15.1823 17.013C15.3582 16.5745 15.4609 16.1109 15.4866 15.6402C15.5237 15.1736 15.4835 14.7041 15.3676 14.2502ZM12.1853 7.76106C12.551 7.81839 12.9085 7.91784 13.2506 8.05736C13.5441 8.16652 13.7976 8.35971 13.9785 8.61203C14.1295 8.86947 14.1751 9.17386 14.106 9.46323C14.0642 9.78958 13.9328 10.0985 13.7258 10.3568C13.3118 10.8704 12.5697 11.152 11.8065 11.2808C11.666 11.305 11.5236 11.3237 11.3804 11.34C11.2204 10.7383 11.0503 10.1389 10.8702 9.5419C10.6804 8.89935 10.4816 8.25974 10.2802 7.62304C10.9181 7.61531 11.5555 7.66149 12.1853 7.76106ZM6.24067 8.74736C6.07764 8.50116 5.9013 8.2634 5.71533 8.03275C6.96134 7.82581 8.21912 7.69462 9.48152 7.63992C9.75286 8.3369 10.0222 9.03049 10.2766 9.73099C10.4714 10.2792 10.6567 10.8303 10.8324 11.3844C10.3592 11.4056 9.8852 11.3994 9.41275 11.3658C9.0076 11.3384 8.60198 11.2946 8.19779 11.2375C7.99567 11.2091 7.79407 11.1769 7.59297 11.1411L7.3196 11.0901C7.08117 10.2604 6.71746 9.47069 6.24067 8.74736ZM11.5739 18.1087C10.7437 18.0693 9.92178 17.9278 9.12729 17.6874C8.72318 17.5714 8.32247 17.4379 7.92733 17.2899C7.65464 17.1876 7.37682 17.0756 7.11192 16.9596C7.16562 16.8236 7.21609 16.6871 7.26134 16.5503C7.39819 16.1144 7.49901 15.6684 7.56283 15.2166C7.62016 14.7711 7.65424 14.323 7.66492 13.8741C7.67927 13.1241 7.60921 12.3748 7.45602 11.64L7.48436 11.647C7.68912 11.6956 7.89469 11.7406 8.10107 11.7821C8.51389 11.865 8.93016 11.9344 9.35035 11.9873C9.91451 12.0608 10.4831 12.0959 11.0522 12.0924C11.1192 12.3146 11.1873 12.5365 11.2509 12.7597C11.3499 13.1011 11.4391 13.4378 11.5086 13.7798C11.7805 15.1564 11.8249 16.5671 11.6402 17.9576C11.6342 18.0082 11.6262 18.0583 11.6197 18.1088C11.6044 18.1085 11.5892 18.1091 11.5739 18.1087ZM14.7671 15.5755C14.6748 16.3719 14.3663 17.1248 13.7732 17.5549C13.3405 17.8581 12.8319 18.0394 12.3022 18.0791C12.3027 18.0526 12.3042 18.0261 12.3046 17.9996C12.313 17.2757 12.2783 16.5549 12.2186 15.8382C12.1593 15.1212 12.0683 14.4078 11.9387 13.6981C11.8274 13.1498 11.7009 12.609 11.5673 12.071C11.6847 12.0623 11.8022 12.0515 11.9201 12.0374C11.9293 12.0363 11.9387 12.0345 11.948 12.0333C12.036 12.0535 12.1239 12.0745 12.2106 12.0986C13.0184 12.3191 13.7868 12.7195 14.2594 13.3479C14.7391 13.9711 14.8699 14.7833 14.7671 15.5755Z" fill="#EA1D25"/>
</svg>
